<?xml version="1.0" encoding="UTF-8" standalone="no"?>
<!-- Created with Inkscape (http://www.inkscape.org/) -->

<svg
   xmlns:dc="http://purl.org/dc/elements/1.1/"
   xmlns:cc="http://creativecommons.org/ns#"
   xmlns:rdf="http://www.w3.org/1999/02/22-rdf-syntax-ns#"
   xmlns:svg="http://www.w3.org/2000/svg"
   xmlns="http://www.w3.org/2000/svg"
   xmlns:sodipodi="http://sodipodi.sourceforge.net/DTD/sodipodi-0.dtd"
   xmlns:inkscape="http://www.inkscape.org/namespaces/inkscape"
   version="1.1"
   id="svg2"
   width="640"
   height="640"
   viewBox="0 0 640 640"
   sodipodi:docname="house-icon.svg"
   inkscape:version="0.92.1 r15371">
  <metadata
     id="metadata8">
    <rdf:RDF>
      <cc:Work
         rdf:about="">
        <dc:format>image/svg+xml</dc:format>
        <dc:type
           rdf:resource="http://purl.org/dc/dcmitype/StillImage" />
        <dc:title />
      </cc:Work>
    </rdf:RDF>
  </metadata>
  <defs
     id="defs6">
    <inkscape:path-effect
       effect="bspline"
       id="path-effect4513"
       is_visible="true"
       weight="33.333333"
       steps="2"
       helper_size="0"
       apply_no_weight="true"
       apply_with_weight="true"
       only_selected="false" />
  </defs>
  <sodipodi:namedview
     pagecolor="#ffffff"
     bordercolor="#666666"
     borderopacity="1"
     objecttolerance="10"
     gridtolerance="10"
     guidetolerance="10"
     inkscape:pageopacity="0"
     inkscape:pageshadow="2"
     inkscape:window-width="1920"
     inkscape:window-height="1013"
     id="namedview4"
     showgrid="false"
     inkscape:zoom="0.85"
     inkscape:cx="214.10249"
     inkscape:cy="314.38574"
     inkscape:window-x="-32000"
     inkscape:window-y="-32000"
     inkscape:window-maximized="0"
     inkscape:current-layer="svg2" />
  <rect
     style="fill:#decd87;fill-opacity:1"
     id="rect4491"
     width="1188.2354"
     height="828.23529"
     x="-1221.1765"
     y="-92.94117" />
  <rect
     style="fill:#decd87;fill-opacity:1"
     id="rect4487"
     width="1223.0509"
     height="1068.4746"
     x="1974.272"
     y="-954.12524" />
  <rect
     style="fill:#ffffff;fill-opacity:1;stroke:#ffffff;stroke-width:1.92060995"
     id="rect4495"
     width="359.80222"
     height="38.932793"
     x="561.11578"
     y="-365.68744"
     transform="matrix(0.7787694,0.62731031,-0.61742612,0.78662887,0,0)" />
  <g
     id="g4522"
     inkscape:export-xdpi="96"
     inkscape:export-ydpi="96"
     transform="translate(824.70588,62.352941)">
    <path
       inkscape:connector-curvature="0"
       id="path4497"
       d="M -760.26863,233.57851 -495.36783,-0.62638375 -232.07547,233.71069 -261.00629,265.15723 -495.59748,56.352199 -733.96226,264.5283 Z"
       style="fill:#ffffff;stroke:#ffffff;stroke-width:1px;stroke-linecap:butt;stroke-linejoin:miter;stroke-opacity:1" />
    <path
       inkscape:connector-curvature="0"
       id="path4507"
       d="m -713.83648,59.496854 h 66.66667 l 0.62893,40.880496 -66.66667,59.74843 z"
       style="fill:#ffffff;stroke:#ffffff;stroke-width:1px;stroke-linecap:butt;stroke-linejoin:miter;stroke-opacity:1" />
    <path
       inkscape:connector-curvature="0"
       id="path4509"
       d="m -686.64114,269.55976 184.83026,-164.15095 186.0876,164.15095 z"
       style="fill:#ffffff;stroke:#ffffff;stroke-width:0.99979609px;stroke-linecap:butt;stroke-linejoin:miter;stroke-opacity:1" />
    <path
       inkscape:original-d="m -686.64114,269.64936 c 10e-4,79.24428 10e-4,158.48957 0,237.73585 0.72154,1.08237 1.44205,2.16572 2.16157,3.25008 1.19176,1.18975 2.382,2.38 3.57149,3.57149 1.04269,-10e-4 2.382,-10e-4 3.57149,0 39.1057,0.14769 78.27615,0.29663 117.41272,0.44644 10e-4,-0.14981 10e-4,-0.59625 0,-0.89287 10e-4,0.14731 10e-4,0.29662 0,0.44643 10e-4,-35.05702 10e-4,-69.64504 0,-104.46607 0.29861,-0.74503 0.59625,-1.48912 0.89287,-2.23218 1.041,-1.18956 2.08437,-2.38199 3.12506,-3.57149 1.19043,-0.44703 2.38199,-0.89387 3.57148,-1.3393 0.89297,-0.44699 1.78675,-0.89388 2.67862,-1.33931 32.54704,-0.14961 65.18068,-0.29863 97.76953,-0.44644 0.59623,-10e-4 1.19149,-10e-4 1.78574,0 1.04094,0.44469 2.08437,0.89187 3.12505,1.33931 0.89346,1.18894 1.78675,2.37999 2.67862,3.57149 0.4475,0.59433 0.89387,1.1895 1.33931,1.78574 10e-4,1.04097 10e-4,2.08237 0,3.12506 0.29891,0.59482 0.59625,1.18949 0.89287,1.78574 0.14991,34.24878 0.29863,68.45255 0.44644,102.68032 0.14982,-0.14981 0.29862,-0.29862 0.44643,-0.44643 0.14882,0.29462 0.29863,0.59425 0.44644,0.89287 39.19117,-0.29902 78.27615,-0.59625 117.41272,-0.89287 1.04266,-0.29862 2.08437,-0.59625 3.12505,-0.89287 0.74421,-0.59557 1.48912,-1.1915 2.23218,-1.78575 0.29819,-0.74396 0.59625,-1.48912 0.89287,-2.23218 0.44672,-0.74385 0.89388,-1.48912 1.33931,-2.23218 10e-4,-0.59531 10e-4,-1.1915 0,-1.78574 0.14957,-78.59034 10e-4,-157.44417 0,-236.16475"
       inkscape:path-effect="#path-effect4513"
       inkscape:connector-curvature="0"
       id="path4511"
       d="m -686.64114,269.64936 c 0,79.24428 0,158.48957 0.36019,198.65428 0.36019,40.16471 1.0807,41.24806 2.03642,42.38523 0.95572,1.13718 2.14596,2.32742 3.26255,2.92266 1.11659,0.59525 2.4559,0.59525 22.60349,0.6696 20.1476,0.0743 59.31805,0.22328 78.88633,0.22278 19.56829,-5e-4 19.56829,-0.44694 19.56829,-0.52159 0,-0.0747 0,0.0747 0,-17.37895 0,-17.45361 0,-52.04163 0.14905,-69.82476 0.14904,-17.78314 0.44668,-18.52723 1.11571,-19.49347 0.66903,-0.96624 1.71241,-2.15866 2.82811,-2.97662 1.11569,-0.81797 2.30726,-1.2648 3.34848,-1.71108 1.04123,-0.44629 1.93501,-0.89318 18.65437,-1.1904 16.71935,-0.29723 49.35299,-0.44624 65.94553,-0.52065 16.59254,-0.0744 17.1878,-0.0744 18.00514,0.14855 0.81733,0.22295 1.86076,0.67013 2.82753,1.48814 0.96677,0.818 1.86006,2.00905 2.52974,2.90197 0.66969,0.89291 1.11607,1.48808 1.33934,2.30626 0.22328,0.81819 0.22328,1.85959 0.37214,2.67865 0.14885,0.81905 0.44619,1.41372 0.66955,18.83594 0.22337,17.42221 0.37208,51.62598 0.5214,68.66496 0.14932,17.03898 0.29812,16.89017 0.44583,16.96388 0.14771,0.0737 0.29753,0.37333 19.96762,0.37332 19.6701,0 58.75508,-0.29722 78.84478,-0.59501 20.08971,-0.29779 21.13142,-0.59542 22.02382,-1.04178 0.8924,-0.44637 1.63731,-1.0423 2.15762,-1.71157 0.52032,-0.66927 0.81838,-1.41443 1.19016,-2.15787 0.37178,-0.74344 0.81894,-1.48871 1.04181,-2.1578 0.22286,-0.6691 0.22286,-1.26529 0.22286,-40.85758 0,-39.59229 0,-118.44612 0,-197.1667"
       style="fill:#ffffff;stroke:#ffffff;stroke-width:1px;stroke-linecap:butt;stroke-linejoin:miter;stroke-opacity:1" />
    <path
       inkscape:connector-curvature="0"
       id="path4515"
       d="m -686.64114,269.64936 c 123.64029,-0.0309 247.27957,-0.0607 370.91786,-0.0896"
       style="fill:#000000;stroke:#ffffff;stroke-width:1px;stroke-linecap:butt;stroke-linejoin:miter;stroke-opacity:1" />
  </g>
</svg>
